<svg width="28" height="10" viewBox="0 0 28 10" fill="none" xmlns="http://www.w3.org/2000/svg">
<path d="M27.8356 1.05198C28.0613 0.787388 28.0362 0.390497 27.7792 0.163702C27.5159 -0.0630927 27.1209 -0.0378932 26.8952 0.220401C26.8576 0.2645 23.7543 3.75462 17.9929 4.97049C17.9741 4.97049 17.9553 4.97679 17.9365 4.98309C16.7391 5.23509 15.4226 5.37998 13.9995 5.37998C12.5764 5.37998 11.2598 5.22879 10.0561 4.97679C10.0185 4.96419 9.98092 4.95789 9.9433 4.95159C4.23206 3.72312 1.13508 0.2582 1.09747 0.214101C0.865507 -0.0441932 0.470548 -0.0756926 0.213511 0.157402C-0.0435263 0.384197 -0.0748724 0.781088 0.157088 1.04568C0.232318 1.13388 0.978352 1.97176 2.37011 2.97344L0.150819 5.59418C-0.0748719 5.85877 -0.0435262 6.25566 0.21978 6.48246C0.483086 6.70925 0.878045 6.67776 1.10374 6.41316L3.41707 3.67902C4.84645 4.5673 6.73347 5.48078 9.06561 6.04777L8.05627 9.1725C7.9497 9.50639 8.1315 9.85918 8.4575 9.96628C8.52019 9.98518 8.58915 9.99778 8.65185 9.99778C8.91515 9.99778 9.15965 9.82768 9.24742 9.56309L10.2944 6.31236C11.4354 6.52026 12.6704 6.63995 13.9995 6.63995C15.3285 6.63995 16.5448 6.52026 17.6795 6.31866L18.7578 9.56939C18.8644 9.89698 19.2217 10.0797 19.5477 9.96628C19.8737 9.85918 20.0555 9.50009 19.9427 9.1725L18.9082 6.06037C21.2529 5.48708 23.1462 4.5736 24.5819 3.68532L26.8952 6.41946C27.1209 6.68405 27.5159 6.71555 27.7792 6.49506C28.0425 6.26826 28.0738 5.87137 27.8544 5.60678L25.6351 2.97974C27.0269 1.97806 27.7666 1.14018 27.8481 1.05198H27.8356Z" fill="black"/>
</svg>
