<svg width="21" height="27" viewBox="0 0 21 27" fill="none" xmlns="http://www.w3.org/2000/svg">
<path d="M16.4603 5.96203C16.4603 2.67456 13.7858 0 10.4983 0C7.21084 0 4.53723 2.67456 4.53723 5.96203C4.53723 9.24949 7.21084 11.9241 10.4983 11.9241C13.7858 11.9241 16.4603 9.24949 16.4603 5.96203ZM6.43476 5.96203C6.43476 3.72105 8.25828 1.89753 10.4983 1.89753C12.7383 1.89753 14.5628 3.72105 14.5628 5.96203C14.5628 8.203 12.7393 10.0265 10.4983 10.0265C8.25733 10.0265 6.43476 8.203 6.43476 5.96203Z" fill="black"/>
<path d="M0.322029 19.4164C-0.278538 20.5236 -0.0195258 21.9562 0.935878 22.8234C3.55826 25.201 6.95388 26.5103 10.5023 26.5103C14.0506 26.5103 17.4415 25.201 20.0639 22.8234C21.0202 21.9562 21.2783 20.5236 20.6777 19.4164C18.9187 16.1811 15.5421 14.1716 11.8656 14.1716H9.13319C5.45673 14.1716 2.08009 16.1811 0.322029 19.4164ZM9.13414 16.0692H11.8666C14.8476 16.0692 17.5848 17.6991 19.0108 20.3215C19.1996 20.6688 19.1066 21.1308 18.7897 21.4173C16.5174 23.478 13.5743 24.6128 10.4985 24.6128C7.42257 24.6128 4.4833 23.478 2.21196 21.4173C1.89508 21.1299 1.80115 20.6688 1.9909 20.3215C3.41689 17.6982 6.15502 16.0682 9.13509 16.0682L9.13414 16.0692Z" fill="black"/>
</svg>
