<svg width="23" height="29" viewBox="0 0 23 29" fill="none" xmlns="http://www.w3.org/2000/svg">
<path d="M18.9194 8.92308H18.5484V7.0641C18.5484 3.16918 15.3863 0 11.5 0C7.61374 0 4.45161 3.16918 4.45161 7.0641V8.92308H4.08065C1.82961 8.92308 0 10.7568 0 13.0128V24.9103C0 27.1663 1.82961 29 4.08065 29H18.9194C21.1704 29 23 27.1663 23 24.9103V13.0128C23 10.7568 21.1704 8.92308 18.9194 8.92308ZM6.67742 7.0641C6.67742 4.39908 8.8409 2.23077 11.5 2.23077C14.1591 2.23077 16.3226 4.39908 16.3226 7.0641V8.92308H6.67742V7.0641ZM20.7742 24.9103C20.7742 25.9349 19.9417 26.7692 18.9194 26.7692H4.08065C3.05826 26.7692 2.22581 25.9349 2.22581 24.9103V13.0128C2.22581 11.9882 3.05826 11.1538 4.08065 11.1538H18.9194C19.9417 11.1538 20.7742 11.9882 20.7742 13.0128V24.9103ZM12.6129 17.4744V20.4487C12.6129 21.0644 12.1143 21.5641 11.5 21.5641C10.8857 21.5641 10.3871 21.0644 10.3871 20.4487V17.4744C10.3871 16.8587 10.8857 16.359 11.5 16.359C12.1143 16.359 12.6129 16.8587 12.6129 17.4744Z" fill="black"/>
</svg>
