<svg width="30" height="30" viewBox="0 0 30 30" fill="none" xmlns="http://www.w3.org/2000/svg">
<path d="M28.0863 22.9545C27.0217 21.8774 24.4412 20.3035 23.189 19.6688C21.5582 18.8432 21.424 18.7758 20.1389 19.7263C19.2817 20.3607 18.7115 20.9278 17.7103 20.7121C16.7091 20.4964 14.535 19.2874 12.633 17.3838C10.7311 15.4801 9.46136 13.2379 9.24913 12.2392C9.0369 11.2405 9.61581 10.6795 10.2477 9.82295C11.1384 8.61565 11.0716 8.41398 10.3158 6.78005C9.72663 5.50922 8.11762 2.9465 7.04092 1.88289C5.88914 0.740538 5.88872 0.942062 5.1444 1.24952C4.53843 1.50299 3.95695 1.81141 3.40723 2.17092C2.33088 2.88276 1.73309 3.47468 1.31406 4.36523C0.895024 5.25578 0.703257 7.3452 2.84958 11.2633C4.99591 15.1814 6.5033 17.1857 9.62538 20.3118C12.7475 23.4379 15.1497 25.1202 18.6624 27.0998C23.0079 29.5452 24.6777 29.0738 25.5727 28.6591C26.4677 28.2445 27.0648 27.6546 27.7825 26.5813C28.1453 26.034 28.4568 25.4545 28.7132 24.8501C29.0244 24.1098 29.226 24.1102 28.0863 22.9545Z" stroke="black" stroke-width="2" stroke-miterlimit="10"/>
</svg>
